<?xml version="1.0" encoding="UTF-8" standalone="no"?>
<svg
   height="391.10001mm"
   viewBox="0 0 494.10003 391.10001"
   width="494.10001mm"
   version="1.1"
   id="svg6"
   sodipodi:docname="outer_shell.svg"
   inkscape:version="1.4 (86a8ad7, 2024-10-11)"
   xmlns:inkscape="http://www.inkscape.org/namespaces/inkscape"
   xmlns:sodipodi="http://sodipodi.sourceforge.net/DTD/sodipodi-0.dtd"
   xmlns="http://www.w3.org/2000/svg"
   xmlns:svg="http://www.w3.org/2000/svg"
   xmlns:rdf="http://www.w3.org/1999/02/22-rdf-syntax-ns#"
   xmlns:cc="http://creativecommons.org/ns#"
   xmlns:dc="http://purl.org/dc/elements/1.1/">
  <defs
     id="defs6">
    <inkscape:path-effect
       effect="fillet_chamfer"
       id="path-effect7"
       is_visible="true"
       lpeversion="1"
       nodesatellites_param="F,0,0,1,0,7.6729167,0,1 @ F,0,0,1,0,7.6729167,0,1 @ F,0,0,1,0,7.6729167,0,1 @ F,0,0,1,0,7.6729167,0,1"
       radius="30"
       unit="px"
       method="auto"
       mode="F"
       chamfer_steps="1"
       flexible="false"
       use_knot_distance="true"
       apply_no_radius="true"
       apply_with_radius="true"
       only_selected="false"
       hide_knots="false" />
  </defs>
  <sodipodi:namedview
     id="namedview6"
     pagecolor="#ffffff"
     bordercolor="#999999"
     borderopacity="1"
     inkscape:showpageshadow="2"
     inkscape:pageopacity="0"
     inkscape:pagecheckerboard="0"
     inkscape:deskcolor="#d1d1d1"
     inkscape:document-units="mm"
     inkscape:zoom="0.36662529"
     inkscape:cx="806.00004"
     inkscape:cy="673.71239"
     inkscape:window-width="1440"
     inkscape:window-height="830"
     inkscape:window-x="-6"
     inkscape:window-y="-6"
     inkscape:window-maximized="1"
     inkscape:current-layer="svg6" />
  <!--
UBox - Box various options for different stypes and lids

Created with Boxes.py (https://boxes.hackerspace-bamberg.de/)
Creation date: 2025-04-30 07:00:06
Command line (remove spaces between dashes): boxes UBox - -x=240 - -y=130 - -h=250 - -radius=70.0 - -burn=0.15
Url: https://boxes.hackerspace-bamberg.de/UBox?FingerJoint_style=rectangular&FingerJoint_surroundingspaces=2.0&FingerJoint_bottom_lip=0.0&FingerJoint_edge_width=1.0&FingerJoint_extra_length=0.0&FingerJoint_finger=2.0&FingerJoint_play=0.0&FingerJoint_space=2.0&FingerJoint_width=1.0&Stackable_angle=60&Stackable_bottom_stabilizers=0.0&Stackable_height=2.0&Stackable_holedistance=1.0&Stackable_width=4.0&Hinge_grip_percentage=0&Hinge_outset=0&Hinge_pinwidth=0.5&Hinge_axle=2.0&Hinge_grip_length=0&Hinge_hingestrength=1&CabinetHinge_bore=3.2&CabinetHinge_eyes_per_hinge=5&CabinetHinge_hinges=2&CabinetHinge_style=inside&CabinetHinge_eye=1.5&CabinetHinge_play=0.05&CabinetHinge_spacing=2.0&SlideOnLid_hole_width=0&SlideOnLid_second_pin=0&SlideOnLid_second_pin=1&SlideOnLid_spring=both&SlideOnLid_style=rectangular&SlideOnLid_surroundingspaces=2.0&SlideOnLid_bottom_lip=0.0&SlideOnLid_edge_width=1.0&SlideOnLid_extra_length=0.0&SlideOnLid_finger=3.0&SlideOnLid_play=0.05&SlideOnLid_space=2.0&SlideOnLid_width=1.0&Click_angle=5.0&Click_bottom_radius=0.1&Click_depth=3.0&RoundedTriangleEdge_height=50.0&RoundedTriangleEdge_r_hole=2.0&RoundedTriangleEdge_radius=30.0&RoundedTriangleEdge_outset=0.0&Mounting_d_head=6.5&Mounting_d_shaft=3.0&Mounting_margin=0.125&Mounting_num=2&Mounting_side=back&Mounting_style=straight+edge%2C+within&HandleEdge_height=20.0&HandleEdge_hole_height=75.0&HandleEdge_hole_width=40%3A40&HandleEdge_on_sides=0&HandleEdge_on_sides=1&HandleEdge_radius=10.0&HandleEdge_outset=1.0&Flex_stretch=1.05&Flex_connection=1.0&Flex_distance=0.5&Flex_width=5.0&Lid_handle=none&Lid_style=none&Lid_handle_height=8.0&Lid_height=4.0&Lid_play=0.1&top_edge=e&x=240&y=130&h=250&radius=70.0&thickness=3.0&format=svg&tabs=0.0&qr_code=0&debug=0&labels=0&labels=1&reference=100.0&inner_corners=loop&burn=0.15&language=en&render=2
Url short: https://boxes.hackerspace-bamberg.de/UBox?x=240&y=130&h=250&radius=70.0&burn=0.15
SettingsUrl: https://boxes.hackerspace-bamberg.de/UBox?FingerJoint_style=rectangular&FingerJoint_surroundingspaces=2.0&FingerJoint_bottom_lip=0.0&FingerJoint_edge_width=1.0&FingerJoint_extra_length=0.0&FingerJoint_finger=2.0&FingerJoint_play=0.0&FingerJoint_space=2.0&FingerJoint_width=1.0&Stackable_angle=60&Stackable_bottom_stabilizers=0.0&Stackable_height=2.0&Stackable_holedistance=1.0&Stackable_width=4.0&Hinge_grip_percentage=0&Hinge_outset=0&Hinge_pinwidth=0.5&Hinge_axle=2.0&Hinge_grip_length=0&Hinge_hingestrength=1&CabinetHinge_bore=3.2&CabinetHinge_eyes_per_hinge=5&CabinetHinge_hinges=2&CabinetHinge_style=inside&CabinetHinge_eye=1.5&CabinetHinge_play=0.05&CabinetHinge_spacing=2.0&SlideOnLid_hole_width=0&SlideOnLid_second_pin=0&SlideOnLid_second_pin=1&SlideOnLid_spring=both&SlideOnLid_style=rectangular&SlideOnLid_surroundingspaces=2.0&SlideOnLid_bottom_lip=0.0&SlideOnLid_edge_width=1.0&SlideOnLid_extra_length=0.0&SlideOnLid_finger=3.0&SlideOnLid_play=0.05&SlideOnLid_space=2.0&SlideOnLid_width=1.0&Click_angle=5.0&Click_bottom_radius=0.1&Click_depth=3.0&RoundedTriangleEdge_height=50.0&RoundedTriangleEdge_r_hole=2.0&RoundedTriangleEdge_radius=30.0&RoundedTriangleEdge_outset=0.0&Mounting_d_head=6.5&Mounting_d_shaft=3.0&Mounting_margin=0.125&Mounting_num=2&Mounting_side=back&Mounting_style=straight+edge%2C+within&HandleEdge_height=20.0&HandleEdge_hole_height=75.0&HandleEdge_hole_width=40%3A40&HandleEdge_on_sides=0&HandleEdge_on_sides=1&HandleEdge_radius=10.0&HandleEdge_outset=1.0&Flex_stretch=1.05&Flex_connection=1.0&Flex_distance=0.5&Flex_width=5.0&Lid_handle=none&Lid_style=none&Lid_handle_height=8.0&Lid_height=4.0&Lid_play=0.1&top_edge=e&x=240&y=130&h=250&radius=70.0&thickness=3.0&format=svg&tabs=0.0&qr_code=0&debug=0&labels=0&labels=1&reference=100.0&inner_corners=loop&burn=0.15&language=en&render=2
SettingsUrl short: https://boxes.hackerspace-bamberg.de/UBox?x=240&y=130&h=250&radius=70.0&burn=0.15
-->
  <title
     id="title1">UBox</title>
  <metadata
     id="metadata1">
    <rdf:RDF>
      <cc:Work>
        <dc:title>FlexBox - UBox</dc:title>
        <dc:date>2025-04-30 07:00:06</dc:date>
        <dc:source>https://boxes.hackerspace-bamberg.de/UBox?FingerJoint_style=rectangular&amp;FingerJoint_surroundingspaces=2.0&amp;FingerJoint_bottom_lip=0.0&amp;FingerJoint_edge_width=1.0&amp;FingerJoint_extra_length=0.0&amp;FingerJoint_finger=2.0&amp;FingerJoint_play=0.0&amp;FingerJoint_space=2.0&amp;FingerJoint_width=1.0&amp;Stackable_angle=60&amp;Stackable_bottom_stabilizers=0.0&amp;Stackable_height=2.0&amp;Stackable_holedistance=1.0&amp;Stackable_width=4.0&amp;Hinge_grip_percentage=0&amp;Hinge_outset=0&amp;Hinge_pinwidth=0.5&amp;Hinge_axle=2.0&amp;Hinge_grip_length=0&amp;Hinge_hingestrength=1&amp;CabinetHinge_bore=3.2&amp;CabinetHinge_eyes_per_hinge=5&amp;CabinetHinge_hinges=2&amp;CabinetHinge_style=inside&amp;CabinetHinge_eye=1.5&amp;CabinetHinge_play=0.05&amp;CabinetHinge_spacing=2.0&amp;SlideOnLid_hole_width=0&amp;SlideOnLid_second_pin=0&amp;SlideOnLid_second_pin=1&amp;SlideOnLid_spring=both&amp;SlideOnLid_style=rectangular&amp;SlideOnLid_surroundingspaces=2.0&amp;SlideOnLid_bottom_lip=0.0&amp;SlideOnLid_edge_width=1.0&amp;SlideOnLid_extra_length=0.0&amp;SlideOnLid_finger=3.0&amp;SlideOnLid_play=0.05&amp;SlideOnLid_space=2.0&amp;SlideOnLid_width=1.0&amp;Click_angle=5.0&amp;Click_bottom_radius=0.1&amp;Click_depth=3.0&amp;RoundedTriangleEdge_height=50.0&amp;RoundedTriangleEdge_r_hole=2.0&amp;RoundedTriangleEdge_radius=30.0&amp;RoundedTriangleEdge_outset=0.0&amp;Mounting_d_head=6.5&amp;Mounting_d_shaft=3.0&amp;Mounting_margin=0.125&amp;Mounting_num=2&amp;Mounting_side=back&amp;Mounting_style=straight+edge%2C+within&amp;HandleEdge_height=20.0&amp;HandleEdge_hole_height=75.0&amp;HandleEdge_hole_width=40%3A40&amp;HandleEdge_on_sides=0&amp;HandleEdge_on_sides=1&amp;HandleEdge_radius=10.0&amp;HandleEdge_outset=1.0&amp;Flex_stretch=1.05&amp;Flex_connection=1.0&amp;Flex_distance=0.5&amp;Flex_width=5.0&amp;Lid_handle=none&amp;Lid_style=none&amp;Lid_handle_height=8.0&amp;Lid_height=4.0&amp;Lid_play=0.1&amp;top_edge=e&amp;x=240&amp;y=130&amp;h=250&amp;radius=70.0&amp;thickness=3.0&amp;format=svg&amp;tabs=0.0&amp;qr_code=0&amp;debug=0&amp;labels=0&amp;labels=1&amp;reference=100.0&amp;inner_corners=loop&amp;burn=0.15&amp;language=en&amp;render=2</dc:source>
        <dc:source>https://boxes.hackerspace-bamberg.de/UBox?x=240&amp;y=130&amp;h=250&amp;radius=70.0&amp;burn=0.15</dc:source>
        <dc:description>Box various options for different stypes and lids

Created with Boxes.py (https://boxes.hackerspace-bamberg.de/)
Command line: boxes UBox --FingerJoint_style=rectangular --FingerJoint_surroundingspaces=2.0 --FingerJoint_bottom_lip=0.0 --FingerJoint_edge_width=1.0 --FingerJoint_extra_length=0.0 --FingerJoint_finger=2.0 --FingerJoint_play=0.0 --FingerJoint_space=2.0 --FingerJoint_width=1.0 --Stackable_angle=60 --Stackable_bottom_stabilizers=0.0 --Stackable_height=2.0 --Stackable_holedistance=1.0 --Stackable_width=4.0 --Hinge_grip_percentage=0 --Hinge_outset=0 --Hinge_pinwidth=0.5 --Hinge_axle=2.0 --Hinge_grip_length=0 --Hinge_hingestrength=1 --CabinetHinge_bore=3.2 --CabinetHinge_eyes_per_hinge=5 --CabinetHinge_hinges=2 --CabinetHinge_style=inside --CabinetHinge_eye=1.5 --CabinetHinge_play=0.05 --CabinetHinge_spacing=2.0 --SlideOnLid_hole_width=0 --SlideOnLid_second_pin=0 --SlideOnLid_second_pin=1 --SlideOnLid_spring=both --SlideOnLid_style=rectangular --SlideOnLid_surroundingspaces=2.0 --SlideOnLid_bottom_lip=0.0 --SlideOnLid_edge_width=1.0 --SlideOnLid_extra_length=0.0 --SlideOnLid_finger=3.0 --SlideOnLid_play=0.05 --SlideOnLid_space=2.0 --SlideOnLid_width=1.0 --Click_angle=5.0 --Click_bottom_radius=0.1 --Click_depth=3.0 --RoundedTriangleEdge_height=50.0 --RoundedTriangleEdge_r_hole=2.0 --RoundedTriangleEdge_radius=30.0 --RoundedTriangleEdge_outset=0.0 --Mounting_d_head=6.5 --Mounting_d_shaft=3.0 --Mounting_margin=0.125 --Mounting_num=2 --Mounting_side=back '--Mounting_style=straight edge, within' --HandleEdge_height=20.0 --HandleEdge_hole_height=75.0 --HandleEdge_hole_width=40:40 --HandleEdge_on_sides=0 --HandleEdge_on_sides=1 --HandleEdge_radius=10.0 --HandleEdge_outset=1.0 --Flex_stretch=1.05 --Flex_connection=1.0 --Flex_distance=0.5 --Flex_width=5.0 --Lid_handle=none --Lid_style=none --Lid_handle_height=8.0 --Lid_height=4.0 --Lid_play=0.1 --top_edge=e --x=240 --y=130 --h=250 --radius=70.0 --thickness=3.0 --format=svg --tabs=0.0 --qr_code=0 --debug=0 --labels=0 --labels=1 --reference=100.0 --inner_corners=loop --burn=0.15
Command line short: boxes UBox --x=240 --y=130 --h=250 --radius=70.0 --burn=0.15
Url: https://boxes.hackerspace-bamberg.de/UBox?FingerJoint_style=rectangular&amp;FingerJoint_surroundingspaces=2.0&amp;FingerJoint_bottom_lip=0.0&amp;FingerJoint_edge_width=1.0&amp;FingerJoint_extra_length=0.0&amp;FingerJoint_finger=2.0&amp;FingerJoint_play=0.0&amp;FingerJoint_space=2.0&amp;FingerJoint_width=1.0&amp;Stackable_angle=60&amp;Stackable_bottom_stabilizers=0.0&amp;Stackable_height=2.0&amp;Stackable_holedistance=1.0&amp;Stackable_width=4.0&amp;Hinge_grip_percentage=0&amp;Hinge_outset=0&amp;Hinge_pinwidth=0.5&amp;Hinge_axle=2.0&amp;Hinge_grip_length=0&amp;Hinge_hingestrength=1&amp;CabinetHinge_bore=3.2&amp;CabinetHinge_eyes_per_hinge=5&amp;CabinetHinge_hinges=2&amp;CabinetHinge_style=inside&amp;CabinetHinge_eye=1.5&amp;CabinetHinge_play=0.05&amp;CabinetHinge_spacing=2.0&amp;SlideOnLid_hole_width=0&amp;SlideOnLid_second_pin=0&amp;SlideOnLid_second_pin=1&amp;SlideOnLid_spring=both&amp;SlideOnLid_style=rectangular&amp;SlideOnLid_surroundingspaces=2.0&amp;SlideOnLid_bottom_lip=0.0&amp;SlideOnLid_edge_width=1.0&amp;SlideOnLid_extra_length=0.0&amp;SlideOnLid_finger=3.0&amp;SlideOnLid_play=0.05&amp;SlideOnLid_space=2.0&amp;SlideOnLid_width=1.0&amp;Click_angle=5.0&amp;Click_bottom_radius=0.1&amp;Click_depth=3.0&amp;RoundedTriangleEdge_height=50.0&amp;RoundedTriangleEdge_r_hole=2.0&amp;RoundedTriangleEdge_radius=30.0&amp;RoundedTriangleEdge_outset=0.0&amp;Mounting_d_head=6.5&amp;Mounting_d_shaft=3.0&amp;Mounting_margin=0.125&amp;Mounting_num=2&amp;Mounting_side=back&amp;Mounting_style=straight+edge%2C+within&amp;HandleEdge_height=20.0&amp;HandleEdge_hole_height=75.0&amp;HandleEdge_hole_width=40%3A40&amp;HandleEdge_on_sides=0&amp;HandleEdge_on_sides=1&amp;HandleEdge_radius=10.0&amp;HandleEdge_outset=1.0&amp;Flex_stretch=1.05&amp;Flex_connection=1.0&amp;Flex_distance=0.5&amp;Flex_width=5.0&amp;Lid_handle=none&amp;Lid_style=none&amp;Lid_handle_height=8.0&amp;Lid_height=4.0&amp;Lid_play=0.1&amp;top_edge=e&amp;x=240&amp;y=130&amp;h=250&amp;radius=70.0&amp;thickness=3.0&amp;format=svg&amp;tabs=0.0&amp;qr_code=0&amp;debug=0&amp;labels=0&amp;labels=1&amp;reference=100.0&amp;inner_corners=loop&amp;burn=0.15&amp;language=en&amp;render=2
Url short: https://boxes.hackerspace-bamberg.de/UBox?x=240&amp;y=130&amp;h=250&amp;radius=70.0&amp;burn=0.15
SettingsUrl: https://boxes.hackerspace-bamberg.de/UBox?FingerJoint_style=rectangular&amp;FingerJoint_surroundingspaces=2.0&amp;FingerJoint_bottom_lip=0.0&amp;FingerJoint_edge_width=1.0&amp;FingerJoint_extra_length=0.0&amp;FingerJoint_finger=2.0&amp;FingerJoint_play=0.0&amp;FingerJoint_space=2.0&amp;FingerJoint_width=1.0&amp;Stackable_angle=60&amp;Stackable_bottom_stabilizers=0.0&amp;Stackable_height=2.0&amp;Stackable_holedistance=1.0&amp;Stackable_width=4.0&amp;Hinge_grip_percentage=0&amp;Hinge_outset=0&amp;Hinge_pinwidth=0.5&amp;Hinge_axle=2.0&amp;Hinge_grip_length=0&amp;Hinge_hingestrength=1&amp;CabinetHinge_bore=3.2&amp;CabinetHinge_eyes_per_hinge=5&amp;CabinetHinge_hinges=2&amp;CabinetHinge_style=inside&amp;CabinetHinge_eye=1.5&amp;CabinetHinge_play=0.05&amp;CabinetHinge_spacing=2.0&amp;SlideOnLid_hole_width=0&amp;SlideOnLid_second_pin=0&amp;SlideOnLid_second_pin=1&amp;SlideOnLid_spring=both&amp;SlideOnLid_style=rectangular&amp;SlideOnLid_surroundingspaces=2.0&amp;SlideOnLid_bottom_lip=0.0&amp;SlideOnLid_edge_width=1.0&amp;SlideOnLid_extra_length=0.0&amp;SlideOnLid_finger=3.0&amp;SlideOnLid_play=0.05&amp;SlideOnLid_space=2.0&amp;SlideOnLid_width=1.0&amp;Click_angle=5.0&amp;Click_bottom_radius=0.1&amp;Click_depth=3.0&amp;RoundedTriangleEdge_height=50.0&amp;RoundedTriangleEdge_r_hole=2.0&amp;RoundedTriangleEdge_radius=30.0&amp;RoundedTriangleEdge_outset=0.0&amp;Mounting_d_head=6.5&amp;Mounting_d_shaft=3.0&amp;Mounting_margin=0.125&amp;Mounting_num=2&amp;Mounting_side=back&amp;Mounting_style=straight+edge%2C+within&amp;HandleEdge_height=20.0&amp;HandleEdge_hole_height=75.0&amp;HandleEdge_hole_width=40%3A40&amp;HandleEdge_on_sides=0&amp;HandleEdge_on_sides=1&amp;HandleEdge_radius=10.0&amp;HandleEdge_outset=1.0&amp;Flex_stretch=1.05&amp;Flex_connection=1.0&amp;Flex_distance=0.5&amp;Flex_width=5.0&amp;Lid_handle=none&amp;Lid_style=none&amp;Lid_handle_height=8.0&amp;Lid_height=4.0&amp;Lid_play=0.1&amp;top_edge=e&amp;x=240&amp;y=130&amp;h=250&amp;radius=70.0&amp;thickness=3.0&amp;format=svg&amp;tabs=0.0&amp;qr_code=0&amp;debug=0&amp;labels=0&amp;labels=1&amp;reference=100.0&amp;inner_corners=loop&amp;burn=0.15&amp;language=en&amp;render=2
SettingsUrl short: https://boxes.hackerspace-bamberg.de/UBox?x=240&amp;y=130&amp;h=250&amp;radius=70.0&amp;burn=0.15
</dc:description>
      </cc:Work>
    </rdf:RDF>
  </metadata>
  <path
     d="M 73.15,388.1 H 84 c 0.15,0 0,-0.15 0,0 v 2.85 c 0,0.083 0.067,0.15 0.15,0.15 h 6 c 0.083,0 0.15,-0.067 0.15,-0.15 v -2.85 c 0,-0.15 -0.15,0 0,0 H 96 c 0.15,0 0,-0.15 0,0 v 2.85 c 0,0.083 0.067,0.15 0.15,0.15 h 6 c 0.083,0 0.15,-0.067 0.15,-0.15 v -2.85 c 0,-0.15 -0.15,0 0,0 h 5.7 c 0.15,0 0,-0.15 0,0 v 2.85 c 0,0.083 0.067,0.15 0.15,0.15 h 6 c 0.083,0 0.15,-0.067 0.15,-0.15 v -2.85 c 0,-0.15 -0.15,0 0,0 h 5.7 c 0.15,0 0,-0.15 0,0 v 2.85 c 0,0.083 0.067,0.15 0.15,0.15 h 6 c 0.083,0 0.15,-0.067 0.15,-0.15 v -2.85 c 0,-0.15 -0.15,0 0,0 h 5.7 c 0.15,0 0,-0.15 0,0 v 2.85 c 0,0.083 0.067,0.15 0.15,0.15 h 6 c 0.083,0 0.15,-0.067 0.15,-0.15 v -2.85 c 0,-0.15 -0.15,0 0,0 h 5.7 c 0.15,0 0,-0.15 0,0 v 2.85 c 0,0.083 0.067,0.15 0.15,0.15 h 6 c 0.083,0 0.15,-0.067 0.15,-0.15 v -2.85 c 0,-0.15 -0.15,0 0,0 h 5.7 c 0.15,0 0,-0.15 0,0 v 2.85 c 0,0.083 0.067,0.15 0.15,0.15 h 6 c 0.083,0 0.15,-0.067 0.15,-0.15 v -2.85 c 0,-0.15 -0.15,0 0,0 h 10.85 c 12.314,0 24.411,-3.241 35.075,-9.398 10.664,-6.157 19.52,-15.013 25.677,-25.677 6.157,-10.664 9.398,-22.761 9.398,-35.075 v -8.85 c 0,-0.15 -0.15,0 0,0 h 2.85 c 0.083,0 0.15,-0.067 0.15,-0.15 v -6 c 0,-0.083 -0.067,-0.15 -0.15,-0.15 h -2.85 c -0.15,0 0,0.15 0,0 v -5.7 c 0,-0.15 -0.15,0 0,0 h 2.85 c 0.083,0 0.15,-0.067 0.15,-0.15 v -6 c 0,-0.083 -0.067,-0.15 -0.15,-0.15 h -2.85 c -0.15,0 0,0.15 0,0 v -5.7 c 0,-0.15 -0.15,0 0,0 h 2.85 c 0.083,0 0.15,-0.067 0.15,-0.15 v -6 c 0,-0.083 -0.067,-0.15 -0.15,-0.15 h -2.85 c -0.15,0 0,0.15 0,0 v -5.7 c 0,-0.15 -0.15,0 0,0 h 2.85 c 0.083,0 0.15,-0.067 0.15,-0.15 v -6 c 0,-0.083 -0.067,-0.15 -0.15,-0.15 h -2.85 c -0.15,0 0,0.15 0,0 v -8.85 c 0,-0.083 -0.067,-0.15 -0.15,-0.15 H 3.15 C 3.067,257.8 3,257.867 3,257.95 v 8.85 c 0,0.15 0.15,0 0,0 H 0.15 C 0.067,266.8 0,266.867 0,266.95 v 6 c 0,0.083 0.067,0.15 0.15,0.15 H 3 c 0.15,0 0,-0.15 0,0 v 5.7 c 0,0.15 0.15,0 0,0 H 0.15 C 0.067,278.8 0,278.867 0,278.95 v 6 c 0,0.083 0.067,0.15 0.15,0.15 H 3 c 0.15,0 0,-0.15 0,0 v 5.7 c 0,0.15 0.15,0 0,0 H 0.15 C 0.067,290.8 0,290.867 0,290.95 v 6 c 0,0.083 0.067,0.15 0.15,0.15 H 3 c 0.15,0 0,-0.15 0,0 v 5.7 c 0,0.15 0.15,0 0,0 H 0.15 C 0.067,302.8 0,302.867 0,302.95 v 6 c 0,0.083 0.067,0.15 0.15,0.15 H 3 c 0.15,0 0,-0.15 0,0 v 8.85 c 0,12.314 3.241,24.411 9.398,35.075 6.157,10.664 15.013,19.52 25.677,25.677 10.664,6.157 22.761,9.398 35.075,9.398"
     stroke="#000000"
     stroke-width="0.30"
     id="path2"
     style="fill:none;stroke-width:0.02;stroke-linecap:round;stroke-linejoin:round;stroke-dasharray:none" />
  <path
     d="m 320.95,388.1 h 10.85 c 0.15,0 0,-0.15 0,0 v 2.85 c 0,0.083 0.067,0.15 0.15,0.15 h 6 c 0.083,0 0.15,-0.067 0.15,-0.15 v -2.85 c 0,-0.15 -0.15,0 0,0 h 5.7 c 0.15,0 0,-0.15 0,0 v 2.85 c 0,0.083 0.067,0.15 0.15,0.15 h 6 c 0.083,0 0.15,-0.067 0.15,-0.15 v -2.85 c 0,-0.15 -0.15,0 0,0 h 5.7 c 0.15,0 0,-0.15 0,0 v 2.85 c 0,0.083 0.067,0.15 0.15,0.15 h 6 c 0.083,0 0.15,-0.067 0.15,-0.15 v -2.85 c 0,-0.15 -0.15,0 0,0 h 5.7 c 0.15,0 0,-0.15 0,0 v 2.85 c 0,0.083 0.067,0.15 0.15,0.15 h 6 c 0.083,0 0.15,-0.067 0.15,-0.15 v -2.85 c 0,-0.15 -0.15,0 0,0 h 5.7 c 0.15,0 0,-0.15 0,0 v 2.85 c 0,0.083 0.067,0.15 0.15,0.15 h 6 c 0.083,0 0.15,-0.067 0.15,-0.15 v -2.85 c 0,-0.15 -0.15,0 0,0 h 5.7 c 0.15,0 0,-0.15 0,0 v 2.85 c 0,0.083 0.067,0.15 0.15,0.15 h 6 c 0.083,0 0.15,-0.067 0.15,-0.15 v -2.85 c 0,-0.15 -0.15,0 0,0 h 5.7 c 0.15,0 0,-0.15 0,0 v 2.85 c 0,0.083 0.067,0.15 0.15,0.15 h 6 c 0.083,0 0.15,-0.067 0.15,-0.15 v -2.85 c 0,-0.15 -0.15,0 0,0 h 10.85 c 12.314,0 24.411,-3.241 35.075,-9.398 10.664,-6.157 19.52,-15.013 25.677,-25.677 6.157,-10.664 9.398,-22.761 9.398,-35.075 v -8.85 c 0,-0.15 -0.15,0 0,0 h 2.85 c 0.083,0 0.15,-0.067 0.15,-0.15 v -6 c 0,-0.083 -0.067,-0.15 -0.15,-0.15 h -2.85 c -0.15,0 0,0.15 0,0 v -5.7 c 0,-0.15 -0.15,0 0,0 h 2.85 c 0.083,0 0.15,-0.067 0.15,-0.15 v -6 c 0,-0.083 -0.067,-0.15 -0.15,-0.15 h -2.85 c -0.15,0 0,0.15 0,0 v -5.7 c 0,-0.15 -0.15,0 0,0 h 2.85 c 0.083,0 0.15,-0.067 0.15,-0.15 v -6 c 0,-0.083 -0.067,-0.15 -0.15,-0.15 h -2.85 c -0.15,0 0,0.15 0,0 v -5.7 c 0,-0.15 -0.15,0 0,0 h 2.85 c 0.083,0 0.15,-0.067 0.15,-0.15 v -6 c 0,-0.083 -0.067,-0.15 -0.15,-0.15 h -2.85 c -0.15,0 0,0.15 0,0 v -8.85 c 0,-0.083 -0.067,-0.15 -0.15,-0.15 h -240 c -0.083,0 -0.15,0.067 -0.15,0.15 v 8.85 c 0,0.15 0.15,0 0,0 h -2.85 c -0.083,0 -0.15,0.067 -0.15,0.15 v 6 c 0,0.083 0.067,0.15 0.15,0.15 h 2.85 c 0.15,0 0,-0.15 0,0 v 5.7 c 0,0.15 0.15,0 0,0 h -2.85 c -0.083,0 -0.15,0.067 -0.15,0.15 v 6 c 0,0.083 0.067,0.15 0.15,0.15 h 2.85 c 0.15,0 0,-0.15 0,0 v 5.7 c 0,0.15 0.15,0 0,0 h -2.85 c -0.083,0 -0.15,0.067 -0.15,0.15 v 6 c 0,0.083 0.067,0.15 0.15,0.15 h 2.85 c 0.15,0 0,-0.15 0,0 v 5.7 c 0,0.15 0.15,0 0,0 h -2.85 c -0.083,0 -0.15,0.067 -0.15,0.15 v 6 c 0,0.083 0.067,0.15 0.15,0.15 h 2.85 c 0.15,0 0,-0.15 0,0 v 8.85 c 0,12.314 3.241,24.411 9.398,35.075 6.157,10.664 15.013,19.52 25.677,25.677 10.664,6.157 22.761,9.398 35.075,9.398"
     stroke="#000000"
     stroke-width="0.30"
     id="path3"
     style="fill:none;stroke-width:0.02;stroke-linecap:round;stroke-linejoin:round;stroke-dasharray:none" />
  <path
     d="m 0.15,256.3 h 9 c 0.083,0 0.15,-0.067 0.15,-0.15 v -2.85 c 0,-0.15 -0.15,0 0,0 H 15 c 0.15,0 0,-0.15 0,0 v 2.85 c 0,0.083 0.067,0.15 0.15,0.15 h 6 c 0.083,0 0.15,-0.067 0.15,-0.15 v -2.85 c 0,-0.15 -0.15,0 0,0 H 27 c 0.15,0 0,-0.15 0,0 v 2.85 c 0,0.083 0.067,0.15 0.15,0.15 h 6 c 0.083,0 0.15,-0.067 0.15,-0.15 v -2.85 c 0,-0.15 -0.15,0 0,0 H 39 c 0.15,0 0,-0.15 0,0 v 2.85 c 0,0.083 0.067,0.15 0.15,0.15 h 6 c 0.083,0 0.15,-0.067 0.15,-0.15 v -2.85 c 0,-0.15 -0.15,0 0,0 H 51 c 0.15,0 0,-0.15 0,0 v 2.85 c 0,0.083 0.067,0.15 0.15,0.15 h 9 109.956 11 c 0.083,0 0.15,-0.067 0.15,-0.15 v -2.85 c 0,-0.15 -0.15,0 0,0 h 5.7 c 0.15,0 0,-0.15 0,0 v 2.85 c 0,0.083 0.067,0.15 0.15,0.15 h 6 c 0.083,0 0.15,-0.067 0.15,-0.15 v -2.85 c 0,-0.15 -0.15,0 0,0 h 5.7 c 0.15,0 0,-0.15 0,0 v 2.85 c 0,0.083 0.067,0.15 0.15,0.15 h 6 c 0.083,0 0.15,-0.067 0.15,-0.15 v -2.85 c 0,-0.15 -0.15,0 0,0 h 5.7 c 0.15,0 0,-0.15 0,0 v 2.85 c 0,0.083 0.067,0.15 0.15,0.15 h 6 c 0.083,0 0.15,-0.067 0.15,-0.15 v -2.85 c 0,-0.15 -0.15,0 0,0 h 5.7 c 0.15,0 0,-0.15 0,0 v 2.85 c 0,0.083 0.067,0.15 0.15,0.15 h 6 c 0.083,0 0.15,-0.067 0.15,-0.15 v -2.85 c 0,-0.15 -0.15,0 0,0 h 5.7 c 0.15,0 0,-0.15 0,0 v 2.85 c 0,0.083 0.067,0.15 0.15,0.15 h 6 c 0.083,0 0.15,-0.067 0.15,-0.15 v -2.85 c 0,-0.15 -0.15,0 0,0 h 5.7 c 0.15,0 0,-0.15 0,0 v 2.85 c 0,0.083 0.067,0.15 0.15,0.15 h 6 c 0.083,0 0.15,-0.067 0.15,-0.15 v -2.85 c 0,-0.15 -0.15,0 0,0 h 5.7 c 0.15,0 0,-0.15 0,0 v 2.85 c 0,0.083 0.067,0.15 0.15,0.15 h 11 109.955 9 c 0.083,0 0.15,-0.067 0.15,-0.15 v -2.85 c 0,-0.15 -0.15,0 0,0 h 5.7 c 0.15,0 0,-0.15 0,0 v 2.85 c 0,0.083 0.068,0.15 0.15,0.15 h 6 c 0.083,0 0.15,-0.067 0.15,-0.15 v -2.85 c 0,-0.15 -0.15,0 0,0 h 5.7 c 0.15,0 0,-0.15 0,0 v 2.85 c 0,0.083 0.068,0.15 0.15,0.15 h 6 c 0.083,0 0.15,-0.067 0.15,-0.15 v -2.85 c 0,-0.15 -0.15,0 0,0 h 5.7 c 0.15,0 0,-0.15 0,0 v 2.85 c 0,0.083 0.068,0.15 0.15,0.15 h 6 c 0.083,0 0.15,-0.067 0.15,-0.15 v -2.85 c 0,-0.15 -0.15,0 0,0 h 5.7 c 0.15,0 0,-0.15 0,0 v 2.85 c 0,0.083 0.068,0.15 0.15,0.15 h 9 c 0.083,0 0.15,-0.067 0.15,-0.15 v -3 -250 -3 c 0,-0.083 -0.067,-0.15 -0.15,-0.15 h -9 c -0.082,0 -0.15,0.067 -0.15,0.15 V 3 c 0,0.15 0.15,0 0,0 h -5.7 c -0.15,0 0,0.15 0,0 V 0.15 c 0,-0.083 -0.067,-0.15 -0.15,-0.15 h -6 c -0.082,0 -0.15,0.067 -0.15,0.15 V 3 c 0,0.15 0.15,0 0,0 h -5.7 c -0.15,0 0,0.15 0,0 V 0.15 c 0,-0.083 -0.067,-0.15 -0.15,-0.15 h -6 c -0.082,0 -0.15,0.067 -0.15,0.15 V 3 c 0,0.15 0.15,0 0,0 h -5.7 c -0.15,0 0,0.15 0,0 V 0.15 c 0,-0.083 -0.067,-0.15 -0.15,-0.15 h -6 c -0.082,0 -0.15,0.067 -0.15,0.15 V 3 c 0,0.15 0.15,0 0,0 h -5.7 c -0.15,0 0,0.15 0,0 V 0.15 c 0,-0.083 -0.067,-0.15 -0.15,-0.15 h -9 -109.955 -11 c -0.083,0 -0.15,0.067 -0.15,0.15 V 3 c 0,0.15 0.15,0 0,0 h -5.7 c -0.15,0 0,0.15 0,0 V 0.15 c 0,-0.083 -0.067,-0.15 -0.15,-0.15 h -6 c -0.083,0 -0.15,0.067 -0.15,0.15 V 3 c 0,0.15 0.15,0 0,0 h -5.7 c -0.15,0 0,0.15 0,0 V 0.15 c 0,-0.083 -0.067,-0.15 -0.15,-0.15 h -6 c -0.083,0 -0.15,0.067 -0.15,0.15 V 3 c 0,0.15 0.15,0 0,0 h -5.7 c -0.15,0 0,0.15 0,0 V 0.15 c 0,-0.083 -0.067,-0.15 -0.15,-0.15 h -6 c -0.083,0 -0.15,0.067 -0.15,0.15 V 3 c 0,0.15 0.15,0 0,0 h -5.7 c -0.15,0 0,0.15 0,0 V 0.15 c 0,-0.083 -0.067,-0.15 -0.15,-0.15 h -6 c -0.083,0 -0.15,0.067 -0.15,0.15 V 3 c 0,0.15 0.15,0 0,0 h -5.7 c -0.15,0 0,0.15 0,0 V 0.15 c 0,-0.083 -0.067,-0.15 -0.15,-0.15 h -6 c -0.083,0 -0.15,0.067 -0.15,0.15 V 3 c 0,0.15 0.15,0 0,0 h -5.7 c -0.15,0 0,0.15 0,0 V 0.15 c 0,-0.083 -0.067,-0.15 -0.15,-0.15 h -6 c -0.083,0 -0.15,0.067 -0.15,0.15 V 3 c 0,0.15 0.15,0 0,0 h -5.7 c -0.15,0 0,0.15 0,0 V 0.15 c 0,-0.083 -0.067,-0.15 -0.15,-0.15 h -11 -109.956 -9 C 51.067,0 51,0.067 51,0.15 V 3 c 0,0.15 0.15,0 0,0 h -5.7 c -0.15,0 0,0.15 0,0 V 0.15 C 45.3,0.067 45.233,0 45.15,0 h -6 C 39.067,0 39,0.067 39,0.15 V 3 c 0,0.15 0.15,0 0,0 h -5.7 c -0.15,0 0,0.15 0,0 V 0.15 C 33.3,0.067 33.233,0 33.15,0 h -6 C 27.067,0 27,0.067 27,0.15 V 3 c 0,0.15 0.15,0 0,0 h -5.7 c -0.15,0 0,0.15 0,0 V 0.15 C 21.3,0.067 21.233,0 21.15,0 h -6 C 15.067,0 15,0.067 15,0.15 V 3 c 0,0.15 0.15,0 0,0 H 9.3 c -0.15,0 0,0.15 0,0 V 0.15 C 9.3,0.067 9.233,0 9.15,0 h -9 C 0.067,0 0,0.067 0,0.15 v 3 250 3 c 0,0.083 0.067,0.15 0.15,0.15"
     stroke="#000000"
     stroke-width="0.30"
     id="path4"
     style="fill:none;stroke-width:0.02;stroke-linecap:round;stroke-linejoin:round;stroke-dasharray:none" />
  <path
     d="m 61.878,256.3 v -15.831 m 0,-3 v -28.663 m 0,-3 v -28.662 m 0,-3 v -28.663 m 0,-3 v -28.662 m 0,-3 V 82.156 m 0,-3 V 50.494 m 0,-3 V 18.831 m 0,-3 V 0 m 1.5,3 v 28.663 m 0,3 v 28.662 m 0,3 v 28.663 m 0,3 v 28.662 m 0,3 v 28.663 m 0,3 v 28.662 m 0,3 v 28.663 m 0,3 V 253.3 m 1.5,3 v -15.831 m 0,-3 v -28.663 m 0,-3 v -28.662 m 0,-3 v -28.663 m 0,-3 v -28.662 m 0,-3 V 82.156 m 0,-3 V 50.494 m 0,-3 V 18.831 m 0,-3 V 0 m 1.5,3 v 28.663 m 0,3 v 28.662 m 0,3 v 28.663 m 0,3 v 28.662 m 0,3 v 28.663 m 0,3 v 28.662 m 0,3 v 28.663 m 0,3 V 253.3 m 1.5,3 v -15.831 m 0,-3 v -28.663 m 0,-3 v -28.662 m 0,-3 v -28.663 m 0,-3 v -28.662 m 0,-3 V 82.156 m 0,-3 V 50.494 m 0,-3 V 18.831 m 0,-3 V 0 m 1.5,3 v 28.663 m 0,3 v 28.662 m 0,3 v 28.663 m 0,3 v 28.662 m 0,3 v 28.663 m 0,3 v 28.662 m 0,3 v 28.663 m 0,3 V 253.3 m 1.5,3 v -15.831 m 0,-3 v -28.663 m 0,-3 v -28.662 m 0,-3 v -28.663 m 0,-3 v -28.662 m 0,-3 V 82.156 m 0,-3 V 50.494 m 0,-3 V 18.831 m 0,-3 V 0 m 1.5,3 v 28.663 m 0,3 v 28.662 m 0,3 v 28.663 m 0,3 v 28.662 m 0,3 v 28.663 m 0,3 v 28.662 m 0,3 v 28.663 m 0,3 V 253.3 m 1.5,3 v -15.831 m 0,-3 v -28.663 m 0,-3 v -28.662 m 0,-3 v -28.663 m 0,-3 v -28.662 m 0,-3 V 82.156 m 0,-3 V 50.494 m 0,-3 V 18.831 m 0,-3 V 0 m 1.5,3 v 28.663 m 0,3 v 28.662 m 0,3 v 28.663 m 0,3 v 28.662 m 0,3 v 28.663 m 0,3 v 28.662 m 0,3 v 28.663 m 0,3 V 253.3 m 1.5,3 v -15.831 m 0,-3 v -28.663 m 0,-3 v -28.662 m 0,-3 v -28.663 m 0,-3 v -28.662 m 0,-3 V 82.156 m 0,-3 V 50.494 m 0,-3 V 18.831 m 0,-3 V 0 m 1.5,3 v 28.663 m 0,3 v 28.662 m 0,3 v 28.663 m 0,3 v 28.662 m 0,3 v 28.663 m 0,3 v 28.662 m 0,3 v 28.663 m 0,3 V 253.3 m 1.5,3 v -15.831 m 0,-3 v -28.663 m 0,-3 v -28.662 m 0,-3 v -28.663 m 0,-3 v -28.662 m 0,-3 V 82.156 m 0,-3 V 50.494 m 0,-3 V 18.831 m 0,-3 V 0 m 1.5,3 v 28.663 m 0,3 v 28.662 m 0,3 v 28.663 m 0,3 v 28.662 m 0,3 v 28.663 m 0,3 v 28.662 m 0,3 v 28.663 m 0,3 V 253.3 m 1.5,3 v -15.831 m 0,-3 v -28.663 m 0,-3 v -28.662 m 0,-3 v -28.663 m 0,-3 v -28.662 m 0,-3 V 82.156 m 0,-3 V 50.494 m 0,-3 V 18.831 m 0,-3 V 0 m 1.5,3 v 28.663 m 0,3 v 28.662 m 0,3 v 28.663 m 0,3 v 28.662 m 0,3 v 28.663 m 0,3 v 28.662 m 0,3 v 28.663 m 0,3 V 253.3 m 1.5,3 v -15.831 m 0,-3 v -28.663 m 0,-3 v -28.662 m 0,-3 v -28.663 m 0,-3 v -28.662 m 0,-3 V 82.156 m 0,-3 V 50.494 m 0,-3 V 18.831 m 0,-3 V 0 m 1.5,3 v 28.663 m 0,3 v 28.662 m 0,3 v 28.663 m 0,3 v 28.662 m 0,3 v 28.663 m 0,3 v 28.662 m 0,3 v 28.663 m 0,3 V 253.3 m 1.5,3 v -15.831 m 0,-3 v -28.663 m 0,-3 v -28.662 m 0,-3 v -28.663 m 0,-3 v -28.662 m 0,-3 V 82.156 m 0,-3 V 50.494 m 0,-3 V 18.831 m 0,-3 V 0 m 1.5,3 v 28.663 m 0,3 v 28.662 m 0,3 v 28.663 m 0,3 v 28.662 m 0,3 v 28.663 m 0,3 v 28.662 m 0,3 v 28.663 m 0,3 V 253.3 m 1.5,3 v -15.831 m 0,-3 v -28.663 m 0,-3 v -28.662 m 0,-3 v -28.663 m 0,-3 v -28.662 m 0,-3 V 82.156 m 0,-3 V 50.494 m 0,-3 V 18.831 m 0,-3 V 0 m 1.5,3 v 28.663 m 0,3 v 28.662 m 0,3 v 28.663 m 0,3 v 28.662 m 0,3 v 28.663 m 0,3 v 28.662 m 0,3 v 28.663 m 0,3 V 253.3 m 1.5,3 v -15.831 m 0,-3 v -28.663 m 0,-3 v -28.662 m 0,-3 v -28.663 m 0,-3 v -28.662 m 0,-3 V 82.156 m 0,-3 V 50.494 m 0,-3 V 18.831 m 0,-3 V 0 m 1.5,3 v 28.663 m 0,3 v 28.662 m 0,3 v 28.663 m 0,3 v 28.662 m 0,3 v 28.663 m 0,3 v 28.662 m 0,3 v 28.663 m 0,3 V 253.3 m 1.5,3 v -15.831 m 0,-3 v -28.663 m 0,-3 v -28.662 m 0,-3 v -28.663 m 0,-3 v -28.662 m 0,-3 V 82.156 m 0,-3 V 50.494 m 0,-3 V 18.831 m 0,-3 V 0 m 1.5,3 v 28.663 m 0,3 v 28.662 m 0,3 v 28.663 m 0,3 v 28.662 m 0,3 v 28.663 m 0,3 v 28.662 m 0,3 v 28.663 m 0,3 V 253.3 m 1.5,3 v -15.831 m 0,-3 v -28.663 m 0,-3 v -28.662 m 0,-3 v -28.663 m 0,-3 v -28.662 m 0,-3 V 82.156 m 0,-3 V 50.494 m 0,-3 V 18.831 m 0,-3 V 0 m 1.5,3 v 28.663 m 0,3 v 28.662 m 0,3 v 28.663 m 0,3 v 28.662 m 0,3 v 28.663 m 0,3 v 28.662 m 0,3 v 28.663 m 0,3 V 253.3 m 1.5,3 v -15.831 m 0,-3 v -28.663 m 0,-3 v -28.662 m 0,-3 v -28.663 m 0,-3 v -28.662 m 0,-3 V 82.156 m 0,-3 V 50.494 m 0,-3 V 18.831 m 0,-3 V 0 m 1.5,3 v 28.663 m 0,3 v 28.662 m 0,3 v 28.663 m 0,3 v 28.662 m 0,3 v 28.663 m 0,3 v 28.662 m 0,3 v 28.663 m 0,3 V 253.3 m 1.5,3 v -15.831 m 0,-3 v -28.663 m 0,-3 v -28.662 m 0,-3 v -28.663 m 0,-3 v -28.662 m 0,-3 V 82.156 m 0,-3 V 50.494 m 0,-3 V 18.831 m 0,-3 V 0 m 1.5,3 v 28.663 m 0,3 v 28.662 m 0,3 v 28.663 m 0,3 v 28.662 m 0,3 v 28.663 m 0,3 v 28.662 m 0,3 v 28.663 m 0,3 V 253.3 m 1.5,3 v -15.831 m 0,-3 v -28.663 m 0,-3 v -28.662 m 0,-3 v -28.663 m 0,-3 v -28.662 m 0,-3 V 82.156 m 0,-3 V 50.494 m 0,-3 V 18.831 m 0,-3 V 0 m 1.5,3 v 28.663 m 0,3 v 28.662 m 0,3 v 28.663 m 0,3 v 28.662 m 0,3 v 28.663 m 0,3 v 28.662 m 0,3 v 28.663 m 0,3 V 253.3 m 1.5,3 v -15.831 m 0,-3 v -28.663 m 0,-3 v -28.662 m 0,-3 v -28.663 m 0,-3 v -28.662 m 0,-3 V 82.156 m 0,-3 V 50.494 m 0,-3 V 18.831 m 0,-3 V 0 m 1.5,3 v 28.663 m 0,3 v 28.662 m 0,3 v 28.663 m 0,3 v 28.662 m 0,3 v 28.663 m 0,3 v 28.662 m 0,3 v 28.663 m 0,3 V 253.3 m 1.5,3 v -15.831 m 0,-3 v -28.663 m 0,-3 v -28.662 m 0,-3 v -28.663 m 0,-3 v -28.662 m 0,-3 V 82.156 m 0,-3 V 50.494 m 0,-3 V 18.831 m 0,-3 V 0 m 1.5,3 v 28.663 m 0,3 v 28.662 m 0,3 v 28.663 m 0,3 v 28.662 m 0,3 v 28.663 m 0,3 v 28.662 m 0,3 v 28.663 m 0,3 V 253.3 m 1.5,3 v -15.831 m 0,-3 v -28.663 m 0,-3 v -28.662 m 0,-3 v -28.663 m 0,-3 v -28.662 m 0,-3 V 82.156 m 0,-3 V 50.494 m 0,-3 V 18.831 m 0,-3 V 0 m 1.5,3 v 28.663 m 0,3 v 28.662 m 0,3 v 28.663 m 0,3 v 28.662 m 0,3 v 28.663 m 0,3 v 28.662 m 0,3 v 28.663 m 0,3 V 253.3 m 1.5,3 v -15.831 m 0,-3 v -28.663 m 0,-3 v -28.662 m 0,-3 v -28.663 m 0,-3 v -28.662 m 0,-3 V 82.156 m 0,-3 V 50.494 m 0,-3 V 18.831 m 0,-3 V 0 m 1.5,3 v 28.663 m 0,3 v 28.662 m 0,3 v 28.663 m 0,3 v 28.662 m 0,3 v 28.663 m 0,3 v 28.662 m 0,3 v 28.663 m 0,3 V 253.3 m 1.5,3 v -15.831 m 0,-3 v -28.663 m 0,-3 v -28.662 m 0,-3 v -28.663 m 0,-3 v -28.662 m 0,-3 V 82.156 m 0,-3 V 50.494 m 0,-3 V 18.831 m 0,-3 V 0 m 1.5,3 v 28.663 m 0,3 v 28.662 m 0,3 v 28.663 m 0,3 v 28.662 m 0,3 v 28.663 m 0,3 v 28.662 m 0,3 v 28.663 m 0,3 V 253.3 m 1.5,3 v -15.831 m 0,-3 v -28.663 m 0,-3 v -28.662 m 0,-3 v -28.663 m 0,-3 v -28.662 m 0,-3 V 82.156 m 0,-3 V 50.494 m 0,-3 V 18.831 m 0,-3 V 0 m 1.5,3 v 28.663 m 0,3 v 28.662 m 0,3 v 28.663 m 0,3 v 28.662 m 0,3 v 28.663 m 0,3 v 28.662 m 0,3 v 28.663 m 0,3 V 253.3 m 1.5,3 v -15.831 m 0,-3 v -28.663 m 0,-3 v -28.662 m 0,-3 v -28.663 m 0,-3 v -28.662 m 0,-3 V 82.156 m 0,-3 V 50.494 m 0,-3 V 18.831 m 0,-3 V 0 m 1.5,3 v 28.663 m 0,3 v 28.662 m 0,3 v 28.663 m 0,3 v 28.662 m 0,3 v 28.663 m 0,3 v 28.662 m 0,3 v 28.663 m 0,3 V 253.3 m 1.5,3 v -15.831 m 0,-3 v -28.663 m 0,-3 v -28.662 m 0,-3 v -28.663 m 0,-3 v -28.662 m 0,-3 V 82.156 m 0,-3 V 50.494 m 0,-3 V 18.831 m 0,-3 V 0 m 1.5,3 v 28.663 m 0,3 v 28.662 m 0,3 v 28.663 m 0,3 v 28.662 m 0,3 v 28.663 m 0,3 v 28.662 m 0,3 v 28.663 m 0,3 V 253.3 m 1.5,3 v -15.831 m 0,-3 v -28.663 m 0,-3 v -28.662 m 0,-3 v -28.663 m 0,-3 v -28.662 m 0,-3 V 82.156 m 0,-3 V 50.494 m 0,-3 V 18.831 m 0,-3 V 0 m 1.5,3 v 28.663 m 0,3 v 28.662 m 0,3 v 28.663 m 0,3 v 28.662 m 0,3 v 28.663 m 0,3 v 28.662 m 0,3 v 28.663 m 0,3 V 253.3 m 1.5,3 v -15.831 m 0,-3 v -28.663 m 0,-3 v -28.662 m 0,-3 v -28.663 m 0,-3 v -28.662 m 0,-3 V 82.156 m 0,-3 V 50.494 m 0,-3 V 18.831 m 0,-3 V 0 m 1.5,3 v 28.663 m 0,3 v 28.662 m 0,3 v 28.663 m 0,3 v 28.662 m 0,3 v 28.663 m 0,3 v 28.662 m 0,3 v 28.663 m 0,3 V 253.3 m 1.5,3 v -15.831 m 0,-3 v -28.663 m 0,-3 v -28.662 m 0,-3 v -28.663 m 0,-3 v -28.662 m 0,-3 V 82.156 m 0,-3 V 50.494 m 0,-3 V 18.831 m 0,-3 V 0 m 1.5,3 v 28.663 m 0,3 v 28.662 m 0,3 v 28.663 m 0,3 v 28.662 m 0,3 v 28.663 m 0,3 v 28.662 m 0,3 v 28.663 m 0,3 V 253.3 m 1.5,3 v -15.831 m 0,-3 v -28.663 m 0,-3 v -28.662 m 0,-3 v -28.663 m 0,-3 v -28.662 m 0,-3 V 82.156 m 0,-3 V 50.494 m 0,-3 V 18.831 m 0,-3 V 0 m 1.5,3 v 28.663 m 0,3 v 28.662 m 0,3 v 28.663 m 0,3 v 28.662 m 0,3 v 28.663 m 0,3 v 28.662 m 0,3 v 28.663 m 0,3 V 253.3 m 1.5,3 v -15.831 m 0,-3 v -28.663 m 0,-3 v -28.662 m 0,-3 v -28.663 m 0,-3 v -28.662 m 0,-3 V 82.156 m 0,-3 V 50.494 m 0,-3 V 18.831 m 0,-3 V 0 m 1.5,3 v 28.663 m 0,3 v 28.662 m 0,3 v 28.663 m 0,3 v 28.662 m 0,3 v 28.663 m 0,3 v 28.662 m 0,3 v 28.663 m 0,3 V 253.3 m 1.5,3 v -15.831 m 0,-3 v -28.663 m 0,-3 v -28.662 m 0,-3 v -28.663 m 0,-3 v -28.662 m 0,-3 V 82.156 m 0,-3 V 50.494 m 0,-3 V 18.831 m 0,-3 V 0 m 1.5,3 v 28.663 m 0,3 v 28.662 m 0,3 v 28.663 m 0,3 v 28.662 m 0,3 v 28.663 m 0,3 v 28.662 m 0,3 v 28.663 m 0,3 V 253.3 m 1.5,3 v -15.831 m 0,-3 v -28.663 m 0,-3 v -28.662 m 0,-3 v -28.663 m 0,-3 v -28.662 m 0,-3 V 82.156 m 0,-3 V 50.494 m 0,-3 V 18.831 m 0,-3 V 0 m 1.5,3 v 28.663 m 0,3 v 28.662 m 0,3 v 28.663 m 0,3 v 28.662 m 0,3 v 28.663 m 0,3 v 28.662 m 0,3 v 28.663 m 0,3 V 253.3 m 1.5,3 v -15.831 m 0,-3 v -28.663 m 0,-3 v -28.662 m 0,-3 v -28.663 m 0,-3 v -28.662 m 0,-3 V 82.156 m 0,-3 V 50.494 m 0,-3 V 18.831 m 0,-3 V 0 m 1.5,3 v 28.663 m 0,3 v 28.662 m 0,3 v 28.663 m 0,3 v 28.662 m 0,3 v 28.663 m 0,3 v 28.662 m 0,3 v 28.663 m 0,3 V 253.3 m 1.5,3 v -15.831 m 0,-3 v -28.663 m 0,-3 v -28.662 m 0,-3 v -28.663 m 0,-3 v -28.662 m 0,-3 V 82.156 m 0,-3 V 50.494 m 0,-3 V 18.831 m 0,-3 V 0 m 1.5,3 v 28.663 m 0,3 v 28.662 m 0,3 v 28.663 m 0,3 v 28.662 m 0,3 v 28.663 m 0,3 v 28.662 m 0,3 v 28.663 m 0,3 V 253.3 m 1.5,3 v -15.831 m 0,-3 v -28.663 m 0,-3 v -28.662 m 0,-3 v -28.663 m 0,-3 v -28.662 m 0,-3 V 82.156 m 0,-3 V 50.494 m 0,-3 V 18.831 m 0,-3 V 0 m 1.5,3 v 28.663 m 0,3 v 28.662 m 0,3 v 28.663 m 0,3 v 28.662 m 0,3 v 28.663 m 0,3 v 28.662 m 0,3 v 28.663 m 0,3 V 253.3 m 1.5,3 v -15.831 m 0,-3 v -28.663 m 0,-3 v -28.662 m 0,-3 v -28.663 m 0,-3 v -28.662 m 0,-3 V 82.156 m 0,-3 V 50.494 m 0,-3 V 18.831 m 0,-3 V 0 m 1.5,3 v 28.663 m 0,3 v 28.662 m 0,3 v 28.663 m 0,3 v 28.662 m 0,3 v 28.663 m 0,3 v 28.662 m 0,3 v 28.663 m 0,3 V 253.3"
     stroke="#000000"
     stroke-width="0.30"
     id="path5"
     style="fill:none;stroke-width:0.02;stroke-linecap:round;stroke-linejoin:round;stroke-dasharray:none" />
  <path
     d="m 271.834,256.3 v -15.831 m 0,-3 v -28.663 m 0,-3 v -28.662 m 0,-3 v -28.663 m 0,-3 v -28.662 m 0,-3 V 82.156 m 0,-3 V 50.494 m 0,-3 V 18.831 m 0,-3 V 0 m 1.5,3 v 28.663 m 0,3 v 28.662 m 0,3 v 28.663 m 0,3 v 28.662 m 0,3 v 28.663 m 0,3 v 28.662 m 0,3 v 28.663 m 0,3 V 253.3 m 1.5,3 v -15.831 m 0,-3 v -28.663 m 0,-3 v -28.662 m 0,-3 v -28.663 m 0,-3 v -28.662 m 0,-3 V 82.156 m 0,-3 V 50.494 m 0,-3 V 18.831 m 0,-3 V 0 m 1.5,3 v 28.663 m 0,3 v 28.662 m 0,3 v 28.663 m 0,3 v 28.662 m 0,3 v 28.663 m 0,3 v 28.662 m 0,3 v 28.663 m 0,3 V 253.3 m 1.5,3 v -15.831 m 0,-3 v -28.663 m 0,-3 v -28.662 m 0,-3 v -28.663 m 0,-3 v -28.662 m 0,-3 V 82.156 m 0,-3 V 50.494 m 0,-3 V 18.831 m 0,-3 V 0 m 1.5,3 v 28.663 m 0,3 v 28.662 m 0,3 v 28.663 m 0,3 v 28.662 m 0,3 v 28.663 m 0,3 v 28.662 m 0,3 v 28.663 m 0,3 V 253.3 m 1.5,3 v -15.831 m 0,-3 v -28.663 m 0,-3 v -28.662 m 0,-3 v -28.663 m 0,-3 v -28.662 m 0,-3 V 82.156 m 0,-3 V 50.494 m 0,-3 V 18.831 m 0,-3 V 0 m 1.5,3 v 28.663 m 0,3 v 28.662 m 0,3 v 28.663 m 0,3 v 28.662 m 0,3 v 28.663 m 0,3 v 28.662 m 0,3 v 28.663 m 0,3 V 253.3 m 1.5,3 v -15.831 m 0,-3 v -28.663 m 0,-3 v -28.662 m 0,-3 v -28.663 m 0,-3 v -28.662 m 0,-3 V 82.156 m 0,-3 V 50.494 m 0,-3 V 18.831 m 0,-3 V 0 m 1.5,3 v 28.663 m 0,3 v 28.662 m 0,3 v 28.663 m 0,3 v 28.662 m 0,3 v 28.663 m 0,3 v 28.662 m 0,3 v 28.663 m 0,3 V 253.3 m 1.5,3 v -15.831 m 0,-3 v -28.663 m 0,-3 v -28.662 m 0,-3 v -28.663 m 0,-3 v -28.662 m 0,-3 V 82.156 m 0,-3 V 50.494 m 0,-3 V 18.831 m 0,-3 V 0 m 1.5,3 v 28.663 m 0,3 v 28.662 m 0,3 v 28.663 m 0,3 v 28.662 m 0,3 v 28.663 m 0,3 v 28.662 m 0,3 v 28.663 m 0,3 V 253.3 m 1.5,3 v -15.831 m 0,-3 v -28.663 m 0,-3 v -28.662 m 0,-3 v -28.663 m 0,-3 v -28.662 m 0,-3 V 82.156 m 0,-3 V 50.494 m 0,-3 V 18.831 m 0,-3 V 0 m 1.5,3 v 28.663 m 0,3 v 28.662 m 0,3 v 28.663 m 0,3 v 28.662 m 0,3 v 28.663 m 0,3 v 28.662 m 0,3 v 28.663 m 0,3 V 253.3 m 1.5,3 v -15.831 m 0,-3 v -28.663 m 0,-3 v -28.662 m 0,-3 v -28.663 m 0,-3 v -28.662 m 0,-3 V 82.156 m 0,-3 V 50.494 m 0,-3 V 18.831 m 0,-3 V 0 m 1.5,3 v 28.663 m 0,3 v 28.662 m 0,3 v 28.663 m 0,3 v 28.662 m 0,3 v 28.663 m 0,3 v 28.662 m 0,3 v 28.663 m 0,3 V 253.3 m 1.5,3 v -15.831 m 0,-3 v -28.663 m 0,-3 v -28.662 m 0,-3 v -28.663 m 0,-3 v -28.662 m 0,-3 V 82.156 m 0,-3 V 50.494 m 0,-3 V 18.831 m 0,-3 V 0 m 1.5,3 v 28.663 m 0,3 v 28.662 m 0,3 v 28.663 m 0,3 v 28.662 m 0,3 v 28.663 m 0,3 v 28.662 m 0,3 v 28.663 m 0,3 V 253.3 m 1.5,3 v -15.831 m 0,-3 v -28.663 m 0,-3 v -28.662 m 0,-3 v -28.663 m 0,-3 v -28.662 m 0,-3 V 82.156 m 0,-3 V 50.494 m 0,-3 V 18.831 m 0,-3 V 0 m 1.5,3 v 28.663 m 0,3 v 28.662 m 0,3 v 28.663 m 0,3 v 28.662 m 0,3 v 28.663 m 0,3 v 28.662 m 0,3 v 28.663 m 0,3 V 253.3 m 1.5,3 v -15.831 m 0,-3 v -28.663 m 0,-3 v -28.662 m 0,-3 v -28.663 m 0,-3 v -28.662 m 0,-3 V 82.156 m 0,-3 V 50.494 m 0,-3 V 18.831 m 0,-3 V 0 m 1.5,3 v 28.663 m 0,3 v 28.662 m 0,3 v 28.663 m 0,3 v 28.662 m 0,3 v 28.663 m 0,3 v 28.662 m 0,3 v 28.663 m 0,3 V 253.3 m 1.5,3 v -15.831 m 0,-3 v -28.663 m 0,-3 v -28.662 m 0,-3 v -28.663 m 0,-3 v -28.662 m 0,-3 V 82.156 m 0,-3 V 50.494 m 0,-3 V 18.831 m 0,-3 V 0 m 1.5,3 v 28.663 m 0,3 v 28.662 m 0,3 v 28.663 m 0,3 v 28.662 m 0,3 v 28.663 m 0,3 v 28.662 m 0,3 v 28.663 m 0,3 V 253.3 m 1.5,3 v -15.831 m 0,-3 v -28.663 m 0,-3 v -28.662 m 0,-3 v -28.663 m 0,-3 v -28.662 m 0,-3 V 82.156 m 0,-3 V 50.494 m 0,-3 V 18.831 m 0,-3 V 0 m 1.5,3 v 28.663 m 0,3 v 28.662 m 0,3 v 28.663 m 0,3 v 28.662 m 0,3 v 28.663 m 0,3 v 28.662 m 0,3 v 28.663 m 0,3 V 253.3 m 1.5,3 v -15.831 m 0,-3 v -28.663 m 0,-3 v -28.662 m 0,-3 v -28.663 m 0,-3 v -28.662 m 0,-3 V 82.156 m 0,-3 V 50.494 m 0,-3 V 18.831 m 0,-3 V 0 m 1.5,3 v 28.663 m 0,3 v 28.662 m 0,3 v 28.663 m 0,3 v 28.662 m 0,3 v 28.663 m 0,3 v 28.662 m 0,3 v 28.663 m 0,3 V 253.3 m 1.5,3 v -15.831 m 0,-3 v -28.663 m 0,-3 v -28.662 m 0,-3 v -28.663 m 0,-3 v -28.662 m 0,-3 V 82.156 m 0,-3 V 50.494 m 0,-3 V 18.831 m 0,-3 V 0 m 1.5,3 v 28.663 m 0,3 v 28.662 m 0,3 v 28.663 m 0,3 v 28.662 m 0,3 v 28.663 m 0,3 v 28.662 m 0,3 v 28.663 m 0,3 V 253.3 m 1.5,3 v -15.831 m 0,-3 v -28.663 m 0,-3 v -28.662 m 0,-3 v -28.663 m 0,-3 v -28.662 m 0,-3 V 82.156 m 0,-3 V 50.494 m 0,-3 V 18.831 m 0,-3 V 0 m 1.5,3 v 28.663 m 0,3 v 28.662 m 0,3 v 28.663 m 0,3 v 28.662 m 0,3 v 28.663 m 0,3 v 28.662 m 0,3 v 28.663 m 0,3 V 253.3 m 1.5,3 v -15.831 m 0,-3 v -28.663 m 0,-3 v -28.662 m 0,-3 v -28.663 m 0,-3 v -28.662 m 0,-3 V 82.156 m 0,-3 V 50.494 m 0,-3 V 18.831 m 0,-3 V 0 m 1.5,3 v 28.663 m 0,3 v 28.662 m 0,3 v 28.663 m 0,3 v 28.662 m 0,3 v 28.663 m 0,3 v 28.662 m 0,3 v 28.663 m 0,3 V 253.3 m 1.5,3 v -15.831 m 0,-3 v -28.663 m 0,-3 v -28.662 m 0,-3 v -28.663 m 0,-3 v -28.662 m 0,-3 V 82.156 m 0,-3 V 50.494 m 0,-3 V 18.831 m 0,-3 V 0 m 1.5,3 v 28.663 m 0,3 v 28.662 m 0,3 v 28.663 m 0,3 v 28.662 m 0,3 v 28.663 m 0,3 v 28.662 m 0,3 v 28.663 m 0,3 V 253.3 m 1.5,3 v -15.831 m 0,-3 v -28.663 m 0,-3 v -28.662 m 0,-3 v -28.663 m 0,-3 v -28.662 m 0,-3 V 82.156 m 0,-3 V 50.494 m 0,-3 V 18.831 m 0,-3 V 0 m 1.5,3 v 28.663 m 0,3 v 28.662 m 0,3 v 28.663 m 0,3 v 28.662 m 0,3 v 28.663 m 0,3 v 28.662 m 0,3 v 28.663 m 0,3 V 253.3 m 1.5,3 v -15.831 m 0,-3 v -28.663 m 0,-3 v -28.662 m 0,-3 v -28.663 m 0,-3 v -28.662 m 0,-3 V 82.156 m 0,-3 V 50.494 m 0,-3 V 18.831 m 0,-3 V 0 m 1.5,3 v 28.663 m 0,3 v 28.662 m 0,3 v 28.663 m 0,3 v 28.662 m 0,3 v 28.663 m 0,3 v 28.662 m 0,3 v 28.663 m 0,3 V 253.3 m 1.5,3 v -15.831 m 0,-3 v -28.663 m 0,-3 v -28.662 m 0,-3 v -28.663 m 0,-3 v -28.662 m 0,-3 V 82.156 m 0,-3 V 50.494 m 0,-3 V 18.831 m 0,-3 V 0 m 1.5,3 v 28.663 m 0,3 v 28.662 m 0,3 v 28.663 m 0,3 v 28.662 m 0,3 v 28.663 m 0,3 v 28.662 m 0,3 v 28.663 m 0,3 V 253.3 m 1.5,3 v -15.831 m 0,-3 v -28.663 m 0,-3 v -28.662 m 0,-3 v -28.663 m 0,-3 v -28.662 m 0,-3 V 82.156 m 0,-3 V 50.494 m 0,-3 V 18.831 m 0,-3 V 0 m 1.5,3 v 28.663 m 0,3 v 28.662 m 0,3 v 28.663 m 0,3 v 28.662 m 0,3 v 28.663 m 0,3 v 28.662 m 0,3 v 28.663 m 0,3 V 253.3 m 1.5,3 v -15.831 m 0,-3 v -28.663 m 0,-3 v -28.662 m 0,-3 v -28.663 m 0,-3 v -28.662 m 0,-3 V 82.156 m 0,-3 V 50.494 m 0,-3 V 18.831 m 0,-3 V 0 m 1.5,3 v 28.663 m 0,3 v 28.662 m 0,3 v 28.663 m 0,3 v 28.662 m 0,3 v 28.663 m 0,3 v 28.662 m 0,3 v 28.663 m 0,3 V 253.3 m 1.5,3 v -15.831 m 0,-3 v -28.663 m 0,-3 v -28.662 m 0,-3 v -28.663 m 0,-3 v -28.662 m 0,-3 V 82.156 m 0,-3 V 50.494 m 0,-3 V 18.831 m 0,-3 V 0 m 1.5,3 v 28.663 m 0,3 v 28.662 m 0,3 v 28.663 m 0,3 v 28.662 m 0,3 v 28.663 m 0,3 v 28.662 m 0,3 v 28.663 m 0,3 V 253.3 m 1.5,3 v -15.831 m 0,-3 v -28.663 m 0,-3 v -28.662 m 0,-3 v -28.663 m 0,-3 v -28.662 m 0,-3 V 82.156 m 0,-3 V 50.494 m 0,-3 V 18.831 m 0,-3 V 0 m 1.5,3 v 28.663 m 0,3 v 28.662 m 0,3 v 28.663 m 0,3 v 28.662 m 0,3 v 28.663 m 0,3 v 28.662 m 0,3 v 28.663 m 0,3 V 253.3 m 1.5,3 v -15.831 m 0,-3 v -28.663 m 0,-3 v -28.662 m 0,-3 v -28.663 m 0,-3 v -28.662 m 0,-3 V 82.156 m 0,-3 V 50.494 m 0,-3 V 18.831 m 0,-3 V 0 m 1.5,3 v 28.663 m 0,3 v 28.662 m 0,3 v 28.663 m 0,3 v 28.662 m 0,3 v 28.663 m 0,3 v 28.662 m 0,3 v 28.663 m 0,3 V 253.3 m 1.5,3 v -15.831 m 0,-3 v -28.663 m 0,-3 v -28.662 m 0,-3 v -28.663 m 0,-3 v -28.662 m 0,-3 V 82.156 m 0,-3 V 50.494 m 0,-3 V 18.831 m 0,-3 V 0 m 1.5,3 v 28.663 m 0,3 v 28.662 m 0,3 v 28.663 m 0,3 v 28.662 m 0,3 v 28.663 m 0,3 v 28.662 m 0,3 v 28.663 m 0,3 V 253.3 m 1.5,3 v -15.831 m 0,-3 v -28.663 m 0,-3 v -28.662 m 0,-3 v -28.663 m 0,-3 v -28.662 m 0,-3 V 82.156 m 0,-3 V 50.494 m 0,-3 V 18.831 m 0,-3 V 0 m 1.5,3 v 28.663 m 0,3 v 28.662 m 0,3 v 28.663 m 0,3 v 28.662 m 0,3 v 28.663 m 0,3 v 28.662 m 0,3 v 28.663 m 0,3 V 253.3 m 1.5,3 v -15.831 m 0,-3 v -28.663 m 0,-3 v -28.662 m 0,-3 v -28.663 m 0,-3 v -28.662 m 0,-3 V 82.156 m 0,-3 V 50.494 m 0,-3 V 18.831 m 0,-3 V 0 m 1.5,3 v 28.663 m 0,3 v 28.662 m 0,3 v 28.663 m 0,3 v 28.662 m 0,3 v 28.663 m 0,3 v 28.662 m 0,3 v 28.663 m 0,3 V 253.3 m 1.5,3 v -15.831 m 0,-3 v -28.663 m 0,-3 v -28.662 m 0,-3 v -28.663 m 0,-3 v -28.662 m 0,-3 V 82.156 m 0,-3 V 50.494 m 0,-3 V 18.831 m 0,-3 V 0 m 1.5,3 v 28.663 m 0,3 v 28.662 m 0,3 v 28.663 m 0,3 v 28.662 m 0,3 v 28.663 m 0,3 v 28.662 m 0,3 v 28.663 m 0,3 V 253.3 m 1.5,3 v -15.831 m 0,-3 v -28.663 m 0,-3 v -28.662 m 0,-3 v -28.663 m 0,-3 v -28.662 m 0,-3 V 82.156 m 0,-3 V 50.494 m 0,-3 V 18.831 m 0,-3 V 0 m 1.5,3 v 28.663 m 0,3 v 28.662 m 0,3 v 28.663 m 0,3 v 28.662 m 0,3 v 28.663 m 0,3 v 28.662 m 0,3 v 28.663 m 0,3 V 253.3 m 1.5,3 v -15.831 m 0,-3 v -28.663 m 0,-3 v -28.662 m 0,-3 v -28.663 m 0,-3 v -28.662 m 0,-3 V 82.156 m 0,-3 V 50.494 m 0,-3 V 18.831 m 0,-3 V 0 m 1.5,3 v 28.663 m 0,3 v 28.662 m 0,3 v 28.663 m 0,3 v 28.662 m 0,3 v 28.663 m 0,3 v 28.662 m 0,3 v 28.663 m 0,3 V 253.3 m 1.5,3 v -15.831 m 0,-3 v -28.663 m 0,-3 v -28.662 m 0,-3 v -28.663 m 0,-3 v -28.662 m 0,-3 V 82.156 m 0,-3 V 50.494 m 0,-3 V 18.831 m 0,-3 V 0 m 1.5,3 v 28.663 m 0,3 v 28.662 m 0,3 v 28.663 m 0,3 v 28.662 m 0,3 v 28.663 m 0,3 v 28.662 m 0,3 v 28.663 m 0,3 V 253.3 m 1.5,3 v -15.831 m 0,-3 v -28.663 m 0,-3 v -28.662 m 0,-3 v -28.663 m 0,-3 v -28.662 m 0,-3 V 82.156 m 0,-3 V 50.494 m 0,-3 V 18.831 m 0,-3 V 0 m 1.5,3 v 28.663 m 0,3 v 28.662 m 0,3 v 28.663 m 0,3 v 28.662 m 0,3 v 28.663 m 0,3 v 28.662 m 0,3 v 28.663 m 0,3 V 253.3 m 1.5,3 v -15.831 m 0,-3 v -28.663 m 0,-3 v -28.662 m 0,-3 v -28.663 m 0,-3 v -28.662 m 0,-3 V 82.156 m 0,-3 V 50.494 m 0,-3 V 18.831 m 0,-3 V 0 m 1.5,3 v 28.663 m 0,3 v 28.662 m 0,3 v 28.663 m 0,3 v 28.662 m 0,3 v 28.663 m 0,3 v 28.662 m 0,3 v 28.663 m 0,3 V 253.3 m 1.5,3 v -15.831 m 0,-3 v -28.663 m 0,-3 v -28.662 m 0,-3 v -28.663 m 0,-3 v -28.662 m 0,-3 V 82.156 m 0,-3 V 50.494 m 0,-3 V 18.831 m 0,-3 V 0 m 1.5,3 v 28.663 m 0,3 v 28.662 m 0,3 v 28.663 m 0,3 v 28.662 m 0,3 v 28.663 m 0,3 v 28.662 m 0,3 v 28.663 m 0,3 V 253.3"
     stroke="#000000"
     stroke-width="0.30"
     id="path6"
     style="fill:none;stroke-width:0.02;stroke-linecap:round;stroke-linejoin:round;stroke-dasharray:none" />
  <path
     id="rect5"
     style="fill:none;stroke:#000000;stroke-width:0.02;stroke-dasharray:none;stroke-opacity:1;paint-order:stroke fill markers"
     d="m 122.67294,390 h 34.65416 a 7.6729167,7.6729167 45 0 1 7.67292,7.67292 v 4.52245 a 7.6729167,7.6729167 135 0 1 -7.67292,7.67292 h -34.65416 a 7.6729167,7.6729167 45 0 1 -7.67292,-7.67292 v -4.52245 A 7.6729167,7.6729167 135 0 1 122.67294,390 Z"
     sodipodi:nodetypes="ccccc"
     inkscape:path-effect="#path-effect7"
     inkscape:original-d="m 115.00002,390 c 16.66667,0 33.33333,0 50,0 0,6.62276 0,13.24553 0,19.86829 -16.66667,0 -33.33333,0 -50,0 0,-6.62276 0,-13.24553 0,-19.86829 z"
     transform="translate(-16.403113,-100.48429)" />
  <rect
     style="fill:none;stroke:#000000;stroke-width:0.02;stroke-dasharray:none;stroke-opacity:1;paint-order:stroke fill markers"
     id="rect1"
     width="6"
     height="16"
     x="246.12665"
     y="175.645" />
</svg>
